<?xml version="1.0" encoding="utf-8"?>
<!-- Generator: Adobe Illustrator 18.0.0, SVG Export Plug-In . SVG Version: 6.00 Build 0)  -->
<!DOCTYPE svg PUBLIC "-//W3C//DTD SVG 1.1//EN" "http://www.w3.org/Graphics/SVG/1.1/DTD/svg11.dtd">
<svg version="1.1" id="Layer_1" xmlns="http://www.w3.org/2000/svg" xmlns:xlink="http://www.w3.org/1999/xlink" x="0px" y="0px"
	 viewBox="2.5 0 10.3 16" enable-background="new 2.5 0 10.3 16" xml:space="preserve">
<g>
	<rect x="2.4" y="11.2" transform="matrix(-0.866 -0.5 0.5 -0.866 2.9404 24.0031)" fill="#FFFFFF" width="4.6" height="0.8"/>
	<path fill="#FFFFFF" d="M10.5,14.4c1.1-1.1,1.9-2.6,1.9-4.3c0-2.1-1.1-4-2.8-5l1.9-3.3l-0.3-0.2l0.5-0.8L10.4,0L10,0.8L9.6,0.6
		L4.9,8.8L5.3,9l-0.6,1l1,0.6l0.6-1l0.4,0.2l2-3.4c1.2,0.8,2,2.1,2,3.6c0,2.4-1.9,4.3-4.3,4.3H3V16h9.8v-1.6H10.5z"/>
</g>
</svg>
