<?xml version="1.0" encoding="utf-8"?>
<!-- Generator: Adobe Illustrator 18.0.0, SVG Export Plug-In . SVG Version: 6.00 Build 0)  -->
<!DOCTYPE svg PUBLIC "-//W3C//DTD SVG 1.1//EN" "http://www.w3.org/Graphics/SVG/1.1/DTD/svg11.dtd">
<svg version="1.1" id="Layer_1" xmlns="http://www.w3.org/2000/svg" xmlns:xlink="http://www.w3.org/1999/xlink" x="0px" y="0px"
	 viewBox="0 0 283.5 42.3" enable-background="new 0 0 283.5 42.3" xml:space="preserve">
<g>
	<path fill="#FFFFFF" d="M149.4,0.7v6.2h-9.7v26h-7.2v-26h-9.7V0.7H149.4z"/>
	<path fill="#FFFFFF" d="M170.6,32.1c-1.2,0.3-2.7,0.7-4.5,1c-1.9,0.3-3.8,0.4-5.8,0.4c-2.1,0-3.8-0.3-5.2-0.8
		c-1.4-0.6-2.5-1.3-3.3-2.3c-0.8-1-1.4-2.2-1.7-3.6c-0.3-1.4-0.5-2.9-0.5-4.6V8.5h6.9v12.8c0,2.2,0.3,3.8,0.9,4.8
		c0.6,1,1.7,1.5,3.3,1.5c0.5,0,1,0,1.6-0.1c0.6,0,1.1-0.1,1.5-0.2V8.5h6.9V32.1z"/>
	<path fill="#FFFFFF" d="M190.4,14.6c-0.6-0.2-1.3-0.3-2.2-0.5c-0.8-0.2-1.7-0.3-2.7-0.3c-0.4,0-1,0-1.6,0.1
		c-0.6,0.1-1.1,0.2-1.4,0.3v18.7h-6.9V9.8c1.2-0.4,2.7-0.8,4.4-1.2c1.7-0.4,3.6-0.6,5.6-0.6c0.4,0,0.8,0,1.3,0.1
		c0.5,0,1.1,0.1,1.6,0.2c0.5,0.1,1.1,0.2,1.6,0.3c0.5,0.1,1,0.2,1.3,0.4L190.4,14.6z"/>
	<path fill="#FFFFFF" d="M194.7,9.3c1.2-0.3,2.7-0.7,4.5-1c1.9-0.3,3.8-0.4,5.8-0.4c2.1,0,3.8,0.3,5.2,0.8c1.4,0.5,2.5,1.3,3.3,2.3
		c0.8,1,1.4,2.2,1.7,3.5c0.3,1.4,0.5,2.9,0.5,4.5v13.8h-6.9V20c0-2.2-0.3-3.8-0.9-4.7c-0.6-0.9-1.7-1.4-3.3-1.4c-0.5,0-1,0-1.6,0.1
		c-0.6,0-1.1,0.1-1.5,0.2v18.8h-6.9V9.3z"/>
	<path fill="#FFFFFF" d="M220,20.9c0-2.2,0.3-4.1,1-5.7c0.7-1.6,1.5-3,2.6-4.1c1.1-1.1,2.3-1.9,3.7-2.5c1.4-0.6,2.9-0.8,4.3-0.8
		c3.5,0,6.2,1.1,8.2,3.2c2,2.1,3,5.2,3,9.4c0,0.4,0,0.8,0,1.3c0,0.5-0.1,0.9-0.1,1.3h-15.7c0.2,1.4,0.8,2.6,2,3.4
		c1.2,0.8,2.8,1.3,4.7,1.3c1.3,0,2.5-0.1,3.7-0.3c1.2-0.2,2.2-0.5,3-0.9l0.9,5.6c-0.4,0.2-0.9,0.4-1.5,0.6c-0.6,0.2-1.3,0.3-2.1,0.5
		c-0.8,0.1-1.6,0.3-2.4,0.3c-0.9,0.1-1.7,0.1-2.6,0.1c-2.2,0-4.1-0.3-5.7-1s-3-1.5-4-2.7c-1.1-1.1-1.9-2.5-2.4-4
		C220.3,24.4,220,22.7,220,20.9z M236.2,18.2c0-0.6-0.1-1.2-0.3-1.7c-0.2-0.6-0.4-1.1-0.8-1.5c-0.4-0.4-0.8-0.8-1.3-1.1
		c-0.5-0.3-1.2-0.4-2-0.4c-0.8,0-1.4,0.1-2,0.4c-0.6,0.3-1,0.6-1.4,1c-0.4,0.4-0.7,0.9-0.9,1.5c-0.2,0.6-0.3,1.2-0.4,1.7H236.2z"/>
	<path fill="#FFFFFF" d="M261.9,14.6c-0.6-0.2-1.3-0.3-2.2-0.5c-0.8-0.2-1.7-0.3-2.7-0.3c-0.4,0-1,0-1.6,0.1
		c-0.6,0.1-1.1,0.2-1.4,0.3v18.7h-6.9V9.8c1.2-0.4,2.7-0.8,4.4-1.2c1.7-0.4,3.6-0.6,5.6-0.6c0.4,0,0.8,0,1.3,0.1
		c0.5,0,1.1,0.1,1.6,0.2c0.5,0.1,1.1,0.2,1.6,0.3c0.5,0.1,1,0.2,1.3,0.4L261.9,14.6z"/>
	<path fill="#FFFFFF" d="M273.1,27.9c1.3,0,2.2-0.1,2.7-0.4c0.5-0.2,0.8-0.7,0.8-1.4c0-0.6-0.3-1-1-1.5c-0.7-0.4-1.7-0.9-3.1-1.4
		c-1.1-0.4-2.1-0.8-2.9-1.3c-0.9-0.4-1.6-1-2.3-1.6c-0.6-0.6-1.1-1.3-1.4-2.2c-0.3-0.8-0.5-1.8-0.5-3c0-2.3,0.9-4.1,2.6-5.4
		c1.7-1.3,4-2,7-2c1.5,0,2.9,0.1,4.3,0.4c1.4,0.3,2.4,0.5,3.2,0.9l-1.2,5.4c-0.8-0.3-1.7-0.5-2.6-0.7c-0.9-0.2-2-0.3-3.2-0.3
		c-2.2,0-3.2,0.6-3.2,1.8c0,0.3,0,0.5,0.1,0.7c0.1,0.2,0.3,0.4,0.6,0.6c0.3,0.2,0.7,0.4,1.1,0.7c0.5,0.2,1.1,0.5,1.8,0.8
		c1.5,0.6,2.8,1.1,3.8,1.7c1,0.5,1.8,1.1,2.3,1.8c0.6,0.6,1,1.3,1.2,2.1c0.2,0.8,0.3,1.7,0.3,2.7c0,2.4-0.9,4.2-2.7,5.5
		c-1.8,1.2-4.4,1.9-7.7,1.9c-2.2,0-4-0.2-5.4-0.6c-1.4-0.4-2.4-0.7-3-0.9l1.2-5.6c1.2,0.5,2.4,0.8,3.6,1.1
		C270.7,27.8,271.9,27.9,273.1,27.9z"/>
</g>
<g>
	<path fill="#333333" d="M10.8,27.4c1,0,1.9-0.1,2.5-0.3c0.7-0.2,1.2-0.4,1.6-0.7c0.4-0.3,0.7-0.6,0.8-1C15.9,25,16,24.5,16,24
		c0-1.1-0.5-1.9-1.5-2.6c-1-0.7-2.7-1.4-5.1-2.3c-1.1-0.4-2.1-0.8-3.2-1.3c-1.1-0.5-2-1.1-2.8-1.8c-0.8-0.7-1.5-1.6-2-2.6
		c-0.5-1-0.8-2.3-0.8-3.8s0.3-2.8,0.8-4c0.6-1.2,1.3-2.2,2.4-3c1-0.8,2.3-1.5,3.7-1.9C8.9,0.2,10.6,0,12.4,0c2.2,0,4,0.2,5.6,0.7
		c1.6,0.5,2.9,1,3.9,1.5l-2.1,5.7c-0.9-0.5-1.9-0.9-3-1.2c-1.1-0.4-2.4-0.5-4-0.5c-1.7,0-3,0.2-3.7,0.7C8.4,7.4,8,8.1,8,9.1
		c0,0.6,0.1,1.1,0.4,1.5c0.3,0.4,0.7,0.8,1.2,1.1c0.5,0.3,1.1,0.6,1.8,0.9c0.7,0.3,1.4,0.5,2.2,0.8c1.7,0.6,3.1,1.2,4.4,1.8
		c1.2,0.6,2.3,1.3,3.1,2.1c0.8,0.8,1.4,1.7,1.8,2.8c0.4,1.1,0.6,2.4,0.6,3.9c0,3-1.1,5.3-3.2,7c-2.1,1.7-5.3,2.5-9.5,2.5
		c-1.4,0-2.7-0.1-3.9-0.3c-1.1-0.2-2.2-0.4-3-0.6c-0.9-0.2-1.6-0.5-2.3-0.8C1,31.6,0.4,31.4,0,31.1l2-5.8c1,0.5,2.1,1,3.6,1.4
		C7,27.2,8.7,27.4,10.8,27.4z"/>
	<path fill="#333333" d="M27.5,2.4l6.9-1.1v7.2h8.3v5.8h-8.3v8.6c0,1.5,0.3,2.6,0.8,3.5c0.5,0.9,1.5,1.3,3.1,1.3
		c0.7,0,1.5-0.1,2.3-0.2c0.8-0.1,1.5-0.3,2.2-0.6l1,5.4c-0.8,0.3-1.8,0.6-2.8,0.9c-1,0.2-2.3,0.4-3.8,0.4c-1.9,0-3.5-0.3-4.7-0.8
		c-1.2-0.5-2.2-1.2-3-2.1c-0.7-0.9-1.3-2-1.6-3.3c-0.3-1.3-0.4-2.7-0.4-4.3V2.4z"/>
	<path fill="#FFFFFF" d="M69.9,20.7c0,1.9-0.3,3.7-0.8,5.3c-0.6,1.6-1.4,3-2.4,4.1c-1.1,1.1-2.3,2-3.8,2.6c-1.5,0.6-3.1,0.9-4.9,0.9
		c-1.8,0-3.4-0.3-4.9-0.9c-1.5-0.6-2.7-1.5-3.8-2.6c-1.1-1.1-1.9-2.5-2.5-4.1c-0.6-1.6-0.9-3.3-0.9-5.3c0-1.9,0.3-3.7,0.9-5.2
		c0.6-1.6,1.4-2.9,2.5-4c1.1-1.1,2.3-2,3.8-2.6c1.5-0.6,3.1-0.9,4.8-0.9c1.8,0,3.4,0.3,4.9,0.9c1.5,0.6,2.7,1.5,3.8,2.6
		c1.1,1.1,1.9,2.5,2.5,4C69.6,17,69.9,18.7,69.9,20.7z"/>
	<path fill="#333333" d="M74.3,9.3c1.2-0.3,2.7-0.7,4.5-1c1.9-0.3,3.8-0.4,5.8-0.4c2.1,0,3.8,0.3,5.2,0.8c1.4,0.5,2.5,1.3,3.3,2.3
		c0.8,1,1.4,2.2,1.7,3.5c0.3,1.4,0.5,2.9,0.5,4.5v13.8h-6.9V20c0-2.2-0.3-3.8-0.9-4.7c-0.6-0.9-1.7-1.4-3.3-1.4c-0.5,0-1,0-1.6,0.1
		c-0.6,0-1.1,0.1-1.5,0.2v18.8h-6.9V9.3z"/>
	<path fill="#333333" d="M99.7,20.9c0-2.2,0.3-4.1,1-5.7c0.7-1.6,1.5-3,2.6-4.1c1.1-1.1,2.3-1.9,3.7-2.5c1.4-0.6,2.9-0.8,4.3-0.8
		c3.5,0,6.2,1.1,8.2,3.2c2,2.1,3,5.2,3,9.4c0,0.4,0,0.8,0,1.3c0,0.5-0.1,0.9-0.1,1.3h-15.7c0.2,1.4,0.8,2.6,2,3.4
		c1.2,0.8,2.8,1.3,4.7,1.3c1.3,0,2.5-0.1,3.7-0.3c1.2-0.2,2.2-0.5,3-0.9l0.9,5.6c-0.4,0.2-0.9,0.4-1.5,0.6c-0.6,0.2-1.3,0.3-2.1,0.5
		c-0.8,0.1-1.6,0.3-2.4,0.3c-0.9,0.1-1.7,0.1-2.6,0.1c-2.2,0-4.1-0.3-5.7-1s-3-1.5-4-2.7c-1.1-1.1-1.9-2.5-2.4-4
		C99.9,24.4,99.7,22.7,99.7,20.9z M115.9,18.2c0-0.6-0.1-1.2-0.3-1.7c-0.2-0.6-0.4-1.1-0.8-1.5c-0.4-0.4-0.8-0.8-1.3-1.1
		c-0.5-0.3-1.2-0.4-2-0.4c-0.8,0-1.4,0.1-2,0.4c-0.6,0.3-1,0.6-1.4,1c-0.4,0.4-0.7,0.9-0.9,1.5c-0.2,0.6-0.3,1.2-0.4,1.7H115.9z"/>
	<path fill="#333333" d="M44.6,42.3v-5.6h26.6v5.6H44.6z"/>
</g>
</svg>
