<?xml version="1.0" encoding="utf-8"?>
<!-- Generator: Adobe Illustrator 18.0.0, SVG Export Plug-In . SVG Version: 6.00 Build 0)  -->
<!DOCTYPE svg PUBLIC "-//W3C//DTD SVG 1.1//EN" "http://www.w3.org/Graphics/SVG/1.1/DTD/svg11.dtd">
<svg version="1.1" id="Layer_1" xmlns="http://www.w3.org/2000/svg" xmlns:xlink="http://www.w3.org/1999/xlink" x="0px" y="0px"
	 viewBox="4.5 0 7 16" enable-background="new 4.5 0 7 16" xml:space="preserve">
<g>
	<path fill="#FFFFFF" d="M8,0L7,1.8h0.7v9.1L5.9,9.1C5.7,9,5.7,8.8,5.6,8.6c0-0.8,0-1.3,0-1.5C6,7,6.2,6.6,6.2,6.3
		c0-0.5-0.4-0.9-0.9-0.9c-0.5,0-0.9,0.4-0.9,0.9c0,0.4,0.2,0.7,0.6,0.8v1.5c0,0.4,0.2,0.8,0.5,1.1l0,0l2,1.9
		c0.1,0.1,0.2,0.3,0.2,0.5v1c-0.7,0.1-1.2,0.7-1.2,1.5C6.5,15.4,7.2,16,8,16s1.5-0.6,1.5-1.5c0-0.7-0.5-1.3-1.2-1.5v-1l0,0V9.8
		c0-0.2,0.1-0.4,0.2-0.6c0,0,1.9-1.9,2-1.9l0,0c0.2-0.3,0.5-0.7,0.5-1.1V4.9h0.6V3.1H9.8v1.8h0.6c0,0,0,0.4,0,1.4
		c0,0.2-0.1,0.4-0.2,0.6L8.3,8.6V1.8h0.7L8,0z"/>
</g>
</svg>
